<?xml version="1.0" encoding="UTF-8"?>
<svg version="1.1" xmlns="http://www.w3.org/2000/svg" width="180" height="180">
<path d="M0 0 C59.4 0 118.8 0 180 0 C180 59.4 180 118.8 180 180 C120.6 180 61.2 180 0 180 C0 120.6 0 61.2 0 0 Z " fill="#1B1E1F" transform="translate(0,0)"/>
<path d="M0 0 C4.17111412 1.81352788 6.28904395 3.76763505 8 8 C8.833365 12.36560929 9.02641614 16.27585337 6.69844055 20.18632507 C2.32202704 25.57117852 -2.30749861 30.54637533 -7.26953125 35.39453125 C-8.03174484 36.1491716 -8.79395844 36.90381195 -9.57926941 37.68132019 C-11.9854953 40.06335375 -14.39813987 42.43871329 -16.8125 44.8125 C-20.01226711 47.95908012 -23.20534462 51.11223204 -26.39453125 54.26953125 C-27.12783157 54.98623489 -27.8611319 55.70293854 -28.61665344 56.44136047 C-29.29463486 57.11273544 -29.97261627 57.78411041 -30.67114258 58.47583008 C-31.26735916 59.06157303 -31.86357574 59.64731598 -32.4778595 60.25080872 C-36.3219026 64.66825026 -36.37415343 68.64774254 -36.24609375 74.3125 C-35.7759229 79.44706423 -33.77518872 82.4974711 -30 85.8125 C-25.1486246 89.34996123 -20.82544994 89.6692669 -15 89 C-9.14550744 87.20256807 -5.91360565 84.47757862 -3 79 C-1.25296368 73.75889104 -1.50764212 69.45245573 -3.25 64.3125 C-4.90442676 61.18090649 -6.74155235 58.71013718 -9 56 C-10.43819559 51.68541323 -10.42844233 47.7994578 -9.375 43.375 C-7.44025995 40.03317628 -5.4571096 37.69762639 -2 36 C2.76590181 34.95950541 7.00709858 34.85206185 11.3125 37.33203125 C13.41469251 39.09580262 15.20694197 40.92447392 17 43 C17.48210937 43.54011719 17.96421875 44.08023438 18.4609375 44.63671875 C27.11031221 55.46154225 27.2497175 68.77815295 26 82 C23.73598845 93.82912542 15.66298308 104.09127483 6 111 C-4.77350218 117.11847739 -16.84112433 119.98517709 -29.125 117.25 C-42.22303884 113.40078042 -53.65629434 105.36101681 -60.3125 93.1875 C-65.91950772 80.60288266 -66.69429963 68.04988597 -62.2578125 55.03515625 C-57.67768272 43.98310395 -48.35312015 34.11011838 -39.125 26.6875 C-35.90362584 24.07065107 -33.34492599 21.00247907 -30.66015625 17.8515625 C-28.64181778 15.60052147 -26.39993332 13.83152806 -24 12 C-21.44365121 9.50755993 -18.96223489 6.96034663 -16.5 4.375 C-10.95828113 -0.88963293 -7.36060258 -1.73977879 0 0 Z " fill="#FCFCFC" transform="translate(105,48)"/>
<path d="M0 0 C4.7042475 3.10052676 8.2918477 6.24500941 9.75 11.8125 C10.42505905 17.77552164 9.03006462 21.92435175 5.75 26.8125 C1.71598554 30.74307819 -1.98321579 32.55588292 -7.5625 33.1875 C-12.1512016 32.72085238 -15.49101824 31.48464573 -19.25 28.8125 C-23.88458049 22.98956553 -24.92121116 18.05909456 -24.25 10.8125 C-22.42465409 5.53927847 -19.64280797 3.01558914 -15.25 -0.1875 C-10.07304236 -1.91315255 -5.12711982 -1.8733707 0 0 Z " fill="#93CC49" transform="translate(130.25,22.1875)"/>
</svg>
